<?xml version="1.0" encoding="iso-8859-1"?><!DOCTYPE svg PUBLIC "-//W3C//DTD SVG 1.1//EN" "http://www.w3.org/Graphics/SVG/1.1/DTD/svg11.dtd"><svg version="1.1" xmlns="http://www.w3.org/2000/svg" xmlns:xlink="http://www.w3.org/1999/xlink" x="0px" y="0px" width="620" height="620" viewBox="0 0 620 620" enable-background="new 0 0 620 620" xml:space="preserve"><g><polygon points="312,318 283,243 261,321" style="fill:#472E74;stroke:#472E74;"/><polygon points="312,318 298,233 283,243" style="fill:#472E74;stroke:#472E74;"/><polygon points="283,243 225,227 261,321" style="fill:#472E74;stroke:#472E74;"/><polygon points="265,153 225,227 283,243" style="fill:#472E74;stroke:#472E74;"/><polygon points="225,227 191,308 261,321" style="fill:#472E74;stroke:#472E74;"/><polygon points="312,318 381,278 298,233" style="fill:#472E74;stroke:#472E74;"/><polygon points="261,321 237,387 312,318" style="fill:#472E74;stroke:#472E74;"/><polygon points="312,318 388,386 381,278" style="fill:#472E74;stroke:#472E74;"/><polygon points="222,381 237,387 261,321" style="fill:#472E74;stroke:#472E74;"/><polygon points="191,308 222,381 261,321" style="fill:#472E74;stroke:#472E74;"/><polygon points="298,233 265,153 283,243" style="fill:#472E74;stroke:#472E74;"/><polygon points="381,278 361,184 298,233" style="fill:#472E74;stroke:#472E74;"/><polygon points="237,387 351,401 312,318" style="fill:#472E74;stroke:#472E74;"/><polygon points="361,184 265,153 298,233" style="fill:#472E74;stroke:#472E74;"/><polygon points="351,401 388,386 312,318" style="fill:#472E74;stroke:#472E74;"/><polygon points="351,401 383,401 388,386" style="fill:#472E74;stroke:#472E74;"/><polygon points="381,278 432,218 361,184" style="fill:#472E74;stroke:#472E74;"/><polygon points="433,354 439,276 381,278" style="fill:#472E74;stroke:#472E74;"/><polygon points="433,354 381,278 388,386" style="fill:#472E74;stroke:#472E74;"/><polygon points="225,227 147,213 191,308" style="fill:#472E74;stroke:#472E74;"/><polygon points="191,308 163,393 222,381" style="fill:#472E74;stroke:#472E74;"/><polygon points="215,121 147,213 225,227" style="fill:#472E74;stroke:#472E74;"/><polygon points="95,293 128,325 96,253" style="fill:#351E5D;stroke:#351E5D;"/><polygon points="237,387 291,466 351,401" style="fill:#472E74;stroke:#472E74;"/><polygon points="188,461 242,465 237,387" style="fill:#472E74;stroke:#472E74;"/><polygon points="128,325 163,393 191,308" style="fill:#472E74;stroke:#472E74;"/><polygon points="439,276 432,218 381,278" style="fill:#472E74;stroke:#472E74;"/><polygon points="492,403 433,354 388,386" style="fill:#472E74;stroke:#472E74;"/><polygon points="361,184 347,125 265,153" style="fill:#472E74;stroke:#472E74;"/><polygon points="424,97 347,125 361,184" style="fill:#472E74;stroke:#472E74;"/><polygon points="347,125 327,113 265,153" style="fill:#472E74;stroke:#472E74;"/><polygon points="265,153 215,121 225,227" style="fill:#472E74;stroke:#472E74;"/><polygon points="268,51 215,121 265,153" style="fill:#614A8A;stroke:#614A8A;"/><polygon points="242,465 291,466 237,387" style="fill:#472E74;stroke:#472E74;"/><polygon points="351,401 415,461 383,401" style="fill:#472E74;stroke:#472E74;"/><polygon points="188,461 237,387 222,381" style="fill:#472E74;stroke:#472E74;"/><polygon points="128,325 72,411 163,393" style="fill:#472E74;stroke:#472E74;"/><polygon points="96,253 128,325 191,308" style="fill:#462D73;stroke:#462D73;"/><polygon points="147,213 96,253 191,308" style="fill:#472E73;stroke:#472E73;"/><polygon points="85,210 96,253 147,213" style="fill:#3D2567;stroke:#3D2567;"/><polygon points="163,393 188,461 222,381" style="fill:#472E74;stroke:#472E74;"/><polygon points="115,491 188,461 163,393" style="fill:#472E74;stroke:#472E74;"/><polygon points="327,113 268,51 265,153" style="fill:#644D8C;stroke:#644D8C;"/><polygon points="347,125 324,81 327,113" style="fill:#472E74;stroke:#472E74;"/><polygon points="424,97 324,81 347,125" style="fill:#472E74;stroke:#472E74;"/><polygon points="96,253 38,320 95,293" style="fill:#1A083D;stroke:#1A083D;"/><polygon points="72,145 85,210 147,213" style="fill:#392064;stroke:#392064;"/><polygon points="439,276 498,283 432,218" style="fill:#472E74;stroke:#472E74;"/><polygon points="432,218 424,97 361,184" style="fill:#472E74;stroke:#472E74;"/><polygon points="433,354 498,283 439,276" style="fill:#472E74;stroke:#472E74;"/><polygon points="291,466 415,461 351,401" style="fill:#472E74;stroke:#472E74;"/><polygon points="383,401 415,461 388,386" style="fill:#472E74;stroke:#472E74;"/><polygon points="433,354 510,345 498,283" style="fill:#472E74;stroke:#472E74;"/><polygon points="188,461 197,490 242,465" style="fill:#472E74;stroke:#472E74;"/><polygon points="242,465 284,550 291,466" style="fill:#472E74;stroke:#472E74;"/><polygon points="291,466 385,541 415,461" style="fill:#472E74;stroke:#472E74;"/><polygon points="140,520 197,490 188,461" style="fill:#472E74;stroke:#472E74;"/><polygon points="498,283 514,273 432,218" style="fill:#472E74;stroke:#472E74;"/><polygon points="510,345 514,273 498,283" style="fill:#472E74;stroke:#472E74;"/><polygon points="215,121 137,105 147,213" style="fill:#472E74;stroke:#472E74;"/><polygon points="165,71 137,105 215,121" style="fill:#594185;stroke:#594185;"/><polygon points="492,403 510,345 433,354" style="fill:#472E74;stroke:#472E74;"/><polygon points="496,178 424,97 432,218" style="fill:#472E74;stroke:#472E74;"/><polygon points="335,0 268,51 324,81" style="fill:#695391;stroke:#695391;"/><polygon points="324,81 268,51 327,113" style="fill:#6E5895;stroke:#6E5895;"/><polygon points="514,273 496,178 432,218" style="fill:#472E74;stroke:#472E74;"/><polygon points="415,461 492,403 388,386" style="fill:#472E74;stroke:#472E74;"/><polygon points="424,97 400,31 324,81" style="fill:#472E74;stroke:#472E74;"/><polygon points="496,178 434,93 424,97" style="fill:#472E74;stroke:#472E74;"/><polygon points="205,22 165,71 215,121" style="fill:#614A8D;stroke:#614A8D;"/><polygon points="38,320 128,325 95,293" style="fill:#372060;stroke:#372060;"/><polygon points="38,320 72,411 128,325" style="fill:#472E74;stroke:#472E74;"/><polygon points="0,266 38,320 96,253" style="fill:#1C093F;stroke:#1C093F;"/><polygon points="434,93 400,31 424,97" style="fill:#472E74;stroke:#472E74;"/><polygon points="496,178 445,89 434,93" style="fill:#472E74;stroke:#472E74;"/><polygon points="58,109 72,145 137,105" style="fill:#3C2367;stroke:#3C2367;"/><polygon points="137,105 72,145 147,213" style="fill:#42296E;stroke:#42296E;"/><polygon points="85,210 27,225 96,253" style="fill:#25114B;stroke:#25114B;"/><polygon points="72,145 57,169 85,210" style="fill:#2D1557;stroke:#2D1557;"/><polygon points="492,403 554,403 510,345" style="fill:#472E74;stroke:#472E74;"/><polygon points="415,461 497,437 492,403" style="fill:#472E74;stroke:#472E74;"/><polygon points="226,580 284,550 197,490" style="fill:#3C2567;stroke:#3C2567;"/><polygon points="197,490 284,550 242,465" style="fill:#472E74;stroke:#472E74;"/><polygon points="415,461 472,522 497,437" style="fill:#472E74;stroke:#472E74;"/><polygon points="57,169 27,225 85,210" style="fill:#371E62;stroke:#371E62;"/><polygon points="72,411 115,491 163,393" style="fill:#472E74;stroke:#472E74;"/><polygon points="347,567 385,541 291,466" style="fill:#472E74;stroke:#472E74;"/><polygon points="268,51 205,22 215,121" style="fill:#6F5A96;stroke:#6F5A96;"/><polygon points="113,49 58,109 137,105" style="fill:#4B3378;stroke:#4B3378;"/><polygon points="249,0 205,22 268,51" style="fill:#76619C;stroke:#76619C;"/><polygon points="115,491 140,520 188,461" style="fill:#472E74;stroke:#472E74;"/><polygon points="445,89 400,31 434,93" style="fill:#472E74;stroke:#472E74;"/><polygon points="0,166 0,266 27,225" style="fill:#422A6E;stroke:#422A6E;"/><polygon points="27,225 0,266 96,253" style="fill:#1C0A3F;stroke:#1C0A3F;"/><polygon points="38,320 0,340 72,411" style="fill:#472E74;stroke:#472E74;"/><polygon points="72,145 58,109 57,169" style="fill:#2E1659;stroke:#2E1659;"/><polygon points="57,169 0,166 27,225" style="fill:#331B5E;stroke:#331B5E;"/><polygon points="113,49 137,105 165,71" style="fill:#654E90;stroke:#654E90;"/><polygon points="335,0 249,0 268,51" style="fill:#6A5491;stroke:#6A5491;"/><polygon points="327,620 347,567 284,550" style="fill:#472E74;stroke:#472E74;"/><polygon points="284,550 347,567 291,466" style="fill:#472E74;stroke:#472E74;"/><polygon points="0,266 0,340 38,320" style="fill:#40286C;stroke:#40286C;"/><polygon points="72,411 31,465 115,491" style="fill:#472E74;stroke:#472E74;"/><polygon points="400,31 335,0 324,81" style="fill:#472E74;stroke:#472E74;"/><polygon points="514,273 573,250 496,178" style="fill:#432B70;stroke:#432B70;"/><polygon points="496,178 536,105 445,89" style="fill:#472E74;stroke:#472E74;"/><polygon points="485,10 409,0 400,31" style="fill:#472E74;stroke:#472E74;"/><polygon points="591,339 573,250 514,273" style="fill:#3F276A;stroke:#3F276A;"/><polygon points="591,339 514,273 510,345" style="fill:#472E74;stroke:#472E74;"/><polygon points="186,0 165,71 205,22" style="fill:#624A8D;stroke:#624A8D;"/><polygon points="186,0 113,49 165,71" style="fill:#644D8F;stroke:#644D8F;"/><polygon points="579,199 551,162 496,178" style="fill:#40286C;stroke:#40286C;"/><polygon points="497,437 554,403 492,403" style="fill:#472E74;stroke:#472E74;"/><polygon points="620,414 554,403 620,480" style="fill:#311B59;stroke:#311B59;"/><polygon points="143,567 226,580 197,490" style="fill:#40276C;stroke:#40276C;"/><polygon points="385,541 472,522 415,461" style="fill:#472E74;stroke:#472E74;"/><polygon points="433,583 472,522 385,541" style="fill:#5A4384;stroke:#5A4384;"/><polygon points="249,0 186,0 205,22" style="fill:#493075;stroke:#493075;"/><polygon points="226,580 240,589 284,550" style="fill:#19073B;stroke:#19073B;"/><polygon points="573,250 579,199 496,178" style="fill:#3C2467;stroke:#3C2467;"/><polygon points="0,340 0,405 72,411" style="fill:#472E74;stroke:#472E74;"/><polygon points="97,564 143,567 140,520" style="fill:#533A7F;stroke:#533A7F;"/><polygon points="0,107 0,166 58,109" style="fill:#3F266B;stroke:#3F266B;"/><polygon points="58,109 0,166 57,169" style="fill:#30175A;stroke:#30175A;"/><polygon points="549,76 536,105 620,104" style="fill:#5B4387;stroke:#5B4387;"/><polygon points="551,162 536,105 496,178" style="fill:#472E74;stroke:#472E74;"/><polygon points="140,520 143,567 197,490" style="fill:#472E74;stroke:#472E74;"/><polygon points="226,580 250,620 240,589" style="fill:#200D43;stroke:#200D43;"/><polygon points="0,405 31,465 72,411" style="fill:#472E74;stroke:#472E74;"/><polygon points="573,250 620,253 579,199" style="fill:#27124C;stroke:#27124C;"/><polygon points="554,403 591,339 510,345" style="fill:#472E74;stroke:#472E74;"/><polygon points="400,31 409,0 335,0" style="fill:#472E74;stroke:#472E74;"/><polygon points="485,10 400,31 445,89" style="fill:#472E74;stroke:#472E74;"/><polygon points="97,564 140,520 115,491" style="fill:#482F75;stroke:#482F75;"/><polygon points="536,105 511,65 445,89" style="fill:#472E74;stroke:#472E74;"/><polygon points="347,567 433,583 385,541" style="fill:#4C3478;stroke:#4C3478;"/><polygon points="620,414 591,339 554,403" style="fill:#472E74;stroke:#472E74;"/><polygon points="429,620 433,583 347,567" style="fill:#584182;stroke:#584182;"/><polygon points="32,526 97,564 115,491" style="fill:#482F75;stroke:#482F75;"/><polygon points="164,620 250,620 226,580" style="fill:#3E2669;stroke:#3E2669;"/><polygon points="50,29 0,107 58,109" style="fill:#472E74;stroke:#472E74;"/><polygon points="50,29 58,109 113,49" style="fill:#472E74;stroke:#472E74;"/><polygon points="240,589 250,620 284,550" style="fill:#1E0B42;stroke:#1E0B42;"/><polygon points="164,620 226,580 143,567" style="fill:#331B5E;stroke:#331B5E;"/><polygon points="591,339 620,253 573,250" style="fill:#361F5F;stroke:#361F5F;"/><polygon points="620,104 536,105 551,162" style="fill:#594185;stroke:#594185;"/><polygon points="250,620 327,620 284,550" style="fill:#40286B;stroke:#40286B;"/><polygon points="536,105 549,76 511,65" style="fill:#472E74;stroke:#472E74;"/><polygon points="511,65 485,10 445,89" style="fill:#472E74;stroke:#472E74;"/><polygon points="620,164 551,162 579,199" style="fill:#2F1759;stroke:#2F1759;"/><polygon points="554,403 497,437 620,480" style="fill:#311C59;stroke:#311C59;"/><polygon points="620,414 620,342 591,339" style="fill:#472E74;stroke:#472E74;"/><polygon points="591,339 620,342 620,253" style="fill:#472E74;stroke:#472E74;"/><polygon points="575,0 485,10 511,65" style="fill:#472F74;stroke:#472F74;"/><polygon points="186,0 89,0 113,49" style="fill:#50377C;stroke:#50377C;"/><polygon points="485,10 481,0 409,0" style="fill:#472E74;stroke:#472E74;"/><polygon points="575,0 481,0 485,10" style="fill:#472E74;stroke:#472E74;"/><polygon points="89,0 50,29 113,49" style="fill:#472E74;stroke:#472E74;"/><polygon points="0,503 32,526 31,465" style="fill:#472E74;stroke:#472E74;"/><polygon points="31,465 32,526 115,491" style="fill:#472E74;stroke:#472E74;"/><polygon points="82,620 143,567 97,564" style="fill:#644C8F;stroke:#644C8F;"/><polygon points="82,620 164,620 143,567" style="fill:#50387D;stroke:#50387D;"/><polygon points="620,253 620,164 579,199" style="fill:#3F266A;stroke:#3F266A;"/><polygon points="0,405 0,503 31,465" style="fill:#472E74;stroke:#472E74;"/><polygon points="552,541 497,437 472,522" style="fill:#472E74;stroke:#472E74;"/><polygon points="433,583 514,566 472,522" style="fill:#5F4889;stroke:#5F4889;"/><polygon points="501,620 514,566 433,583" style="fill:#624C8C;stroke:#624C8C;"/><polygon points="327,620 429,620 347,567" style="fill:#472E74;stroke:#472E74;"/><polygon points="514,566 552,541 472,522" style="fill:#4B3278;stroke:#4B3278;"/><polygon points="552,541 620,480 497,437" style="fill:#3E256A;stroke:#3E256A;"/><polygon points="514,566 551,553 552,541" style="fill:#51387D;stroke:#51387D;"/><polygon points="584,582 551,553 570,620" style="fill:#472E74;stroke:#472E74;"/><polygon points="620,164 620,104 551,162" style="fill:#462D72;stroke:#462D72;"/><polygon points="549,76 575,0 511,65" style="fill:#553E80;stroke:#553E80;"/><polygon points="620,566 620,480 552,541" style="fill:#3D2569;stroke:#3D2569;"/><polygon points="0,561 35,585 32,526" style="fill:#66508E;stroke:#66508E;"/><polygon points="32,526 35,585 97,564" style="fill:#685190;stroke:#685190;"/><polygon points="35,585 82,620 97,564" style="fill:#654F8E;stroke:#654F8E;"/><polygon points="620,104 593,41 549,76" style="fill:#624B8B;stroke:#624B8B;"/><polygon points="35,585 26,620 82,620" style="fill:#604A89;stroke:#604A89;"/><polygon points="0,503 0,561 32,526" style="fill:#472E74;stroke:#472E74;"/><polygon points="89,0 8,0 50,29" style="fill:#472E74;stroke:#472E74;"/><polygon points="50,29 0,5 0,107" style="fill:#472E74;stroke:#472E74;"/><polygon points="429,620 501,620 433,583" style="fill:#614B8A;stroke:#614B8A;"/><polygon points="551,553 584,582 552,541" style="fill:#472E74;stroke:#472E74;"/><polygon points="8,0 0,5 50,29" style="fill:#472E74;stroke:#472E74;"/><polygon points="8,0 0,0 0,5" style="fill:#472E74;stroke:#472E74;"/><polygon points="593,41 575,0 549,76" style="fill:#8571A8;stroke:#8571A8;"/><polygon points="570,620 551,553 514,566" style="fill:#4E367B;stroke:#4E367B;"/><polygon points="0,620 26,620 35,585" style="fill:#5F4989;stroke:#5F4989;"/><polygon points="593,41 620,26 575,0" style="fill:#725D98;stroke:#725D98;"/><polygon points="620,104 620,26 593,41" style="fill:#574082;stroke:#574082;"/><polygon points="584,582 620,566 552,541" style="fill:#472E74;stroke:#472E74;"/><polygon points="620,620 620,566 584,582" style="fill:#472E74;stroke:#472E74;"/><polygon points="0,561 0,620 35,585" style="fill:#5E4787;stroke:#5E4787;"/><polygon points="501,620 570,620 514,566" style="fill:#553D81;stroke:#553D81;"/><polygon points="620,26 620,0 575,0" style="fill:#482F75;stroke:#482F75;"/><polygon points="570,620 620,620 584,582" style="fill:#472E74;stroke:#472E74;"/></g></svg>